<?xml version="1.0" encoding="UTF-8"?>
<svg xmlns="http://www.w3.org/2000/svg" xmlns:xlink="http://www.w3.org/1999/xlink" width="107pt" height="76.2pt" viewBox="0 0 107 76.2" version="1.1">
<defs>
<clipPath id="clip1">
  <path d="M 0 0 L 107 0 L 107 76.199219 L 0 76.199219 Z M 0 0 "/>
</clipPath>
</defs>
<g id="surface1">
<path style=" stroke:none;fill-rule:evenodd;fill:rgb(10.594177%,9.812927%,9.423828%);fill-opacity:1;" d="M 37.28125 26.65625 L 42.378906 26.65625 L 42.378906 31.914063 L 46.65625 31.914063 L 46.65625 36.773438 L 42.378906 36.773438 L 42.378906 45.011719 C 42.390625 45.808594 43.417969 46.988281 44.488281 46.910156 L 47.183594 46.910156 L 47.183594 51.929688 L 43.039063 51.929688 C 41.605469 51.929688 40.054688 51.246094 39.007813 50.289063 C 37.894531 49.273438 37.238281 47.886719 37.285156 45.011719 Z M 37.28125 26.65625 "/>
<path style=" stroke:none;fill-rule:evenodd;fill:rgb(10.594177%,9.812927%,9.423828%);fill-opacity:1;" d="M 48.722656 26.65625 L 53.816406 26.65625 L 53.816406 31.914063 L 58.097656 31.914063 L 58.097656 36.773438 L 53.816406 36.773438 L 53.816406 45.011719 C 53.835938 45.808594 54.859375 46.988281 55.929688 46.910156 L 58.628906 46.910156 L 58.628906 51.929688 L 54.480469 51.929688 C 53.042969 51.929688 51.496094 51.246094 50.453125 50.289063 C 49.339844 49.273438 48.675781 47.886719 48.722656 45.011719 Z M 48.722656 26.65625 "/>
<path style=" stroke:none;fill-rule:evenodd;fill:rgb(10.594177%,9.812927%,9.423828%);fill-opacity:1;" d="M 69.695313 31.554688 C 75.039063 31.554688 79.148438 35.476563 79.933594 40.492188 C 79.9375 40.535156 79.945313 40.578125 79.960938 40.621094 L 75.886719 41.785156 L 64.476563 44.871094 C 65.683594 46.558594 67.570313 47.542969 69.566406 47.542969 C 71.816406 47.542969 73.828125 46.3125 74.964844 44.414063 L 79.761719 45.496094 C 78.292969 49.546875 74.339844 52.457031 69.695313 52.457031 C 63.796875 52.457031 59.015625 47.777344 59.015625 42.007813 C 59.015625 36.234375 63.796875 31.554688 69.695313 31.554688 Z M 63.773438 40.894531 C 64.179688 37.972656 66.554688 35.804688 69.355469 35.804688 C 71.121094 35.804688 72.789063 36.679688 73.855469 38.164063 Z M 63.773438 40.894531 "/>
<path style=" stroke:none;fill-rule:evenodd;fill:rgb(10.594177%,9.812927%,9.423828%);fill-opacity:1;" d="M 91.503906 31.679688 C 94.546875 31.679688 97.292969 32.988281 99.203125 35.070313 C 99.191406 35.078125 97.046875 36.960938 95.558594 38.222656 C 94.53125 37.121094 93.066406 36.429688 91.441406 36.429688 C 88.339844 36.429688 85.820313 38.949219 85.820313 42.054688 C 85.820313 45.160156 88.339844 47.671875 91.441406 47.671875 C 94.121094 47.671875 96.363281 45.796875 96.925781 43.289063 L 101.589844 44.132813 L 101.574219 44.183594 C 100.601563 48.941406 96.542969 52.542969 91.503906 52.542969 C 85.738281 52.542969 81.066406 47.871094 81.066406 42.113281 C 81.066406 36.351563 85.738281 31.679688 91.503906 31.679688 Z M 91.503906 31.679688 "/>
<path style=" stroke:none;fill-rule:evenodd;fill:rgb(9.812927%,59.179688%,67.771912%);fill-opacity:1;" d="M 24.535156 24.152344 L 20.96875 27.710938 L 25.984375 32.792969 C 29.394531 35.921875 28.800781 38.828125 27.878906 40.511719 C 27.371094 41.429688 26.632813 42.078125 25.90625 42.804688 L 13.132813 55.546875 L 9.542969 51.941406 L 13.109375 48.382813 L 8.097656 43.292969 C 4.683594 40.164063 5.277344 37.265625 6.207031 35.582031 C 6.710938 34.664063 7.445313 34.015625 8.175781 33.289063 L 20.945313 20.539063 Z M 17.464844 31.207031 L 11.996094 36.664063 C 11.996094 36.664063 10.007813 38.355469 11.695313 39.933594 L 16.613281 44.886719 L 22.089844 39.421875 C 22.089844 39.421875 24.070313 37.738281 22.386719 36.160156 Z M 17.464844 31.207031 "/>
<g clip-path="url(#clip1)" clip-rule="nonzero">
<path style="fill:none;stroke-width:2;stroke-linecap:butt;stroke-linejoin:miter;stroke:rgb(0%,0%,0%);stroke-opacity:1;stroke-miterlimit:4;" d="M 1.015625 2 L 1069.726563 2 L 1069.726563 761.140625 L 1.015625 761.140625 Z M 1.015625 2 " transform="matrix(0.1,0,0,-0.1,0,76.2)"/>
</g>
</g>
</svg>
